Coordinates
version=1
nRows=10
nColumns=40
inDegrees=yes

Units are S.I. units (second, meters, Newtons, ...)
If the header above contains a line with 'inDegrees', this indicates whether rotational values are in degrees (yes) or radians (no).

endheader
time	pelvis_tilt	pelvis_list	pelvis_rotation	pelvis_tx	pelvis_ty	pelvis_tz	hip_flexion_r	hip_adduction_r	hip_rotation_r	knee_angle_r	knee_angle_r_beta	ankle_angle_r	subtalar_angle_r	mtp_angle_r	hip_flexion_l	hip_adduction_l	hip_rotation_l	knee_angle_l	knee_angle_l_beta	ankle_angle_l	subtalar_angle_l	mtp_angle_l	lumbar_extension	lumbar_bending	lumbar_rotation	arm_flex_r	arm_add_r	arm_rot_r	elbow_flex_r	pro_sup_r	wrist_flex_r	wrist_dev_r	arm_flex_l	arm_add_l	arm_rot_l	elbow_flex_l	pro_sup_l	wrist_flex_l	wrist_dev_l
     14.09999999999999964473	     11.72856529138831760406	     -3.01993919194133964012	   -179.38716736834899734276	      0.32571339519498432313	      0.80196669309561907646	     -0.94599962904903267535	     49.68792016757092966373	    -41.07616077267554288710	    -21.69432087488642935114	     39.36276051384348306783	      0.68700977364058379848	    -12.85622288074066332797	      0.00000000000000000000	      0.00000000000000000000	     47.75950760563896579924	    -32.58458746859134436136	    -17.97013049861184086353	     42.60809664305699584474	      0.74365157442928775389	     -4.30316331546132957442	      0.00000000000000000000	      0.00000000000000000000	    -59.92389564842312665860	      0.86272565241564558303	     -2.64828966197548032468	     54.44919817468728950871	    -11.92577100696547098835	     43.60897095890810248875	      7.52328523373336999214	     31.73472999029681318461	      0.00000000000000000000	      0.00000000000000000000	     62.72052831412214146667	    -13.37393909563960114895	     47.93535202282792795359	     15.94118260654235719187	     82.01666429936686597557	      0.00000000000000000000	      0.00000000000000000000
     14.10500000000000042633	     11.70385071103487817368	     -3.06195719996061788137	   -179.39244836954918582705	      0.32563515231029632746	      0.80310386282466927899	     -0.94611838109793489071	     49.44105627110912593025	    -40.94793659503968541458	    -21.64791216094801029612	     38.96532219563753329794	      0.68007316641430104465	    -12.98393878391543765360	      0.00000000000000000000	      0.00000000000000000000	     47.48199635474850310857	    -32.46526570338331652010	    -18.10710495371868589132	     42.24734244479310518727	      0.73735522587919044568	     -4.48518413902451218433	      0.00000000000000000000	      0.00000000000000000000	    -59.79703878534223093766	      0.79040988166492742728	     -2.64726172842892504278	     54.29356335768536467867	    -11.94666972815097594207	     43.59037294769042603093	      7.53745386534208439144	     31.73331283883537068391	      0.00000000000000000000	      0.00000000000000000000	     62.61245989729876981755	    -13.39059875523346043735	     47.96149454586837634906	     16.02454935042947781199	     82.02175870201925533820	      0.00000000000000000000	      0.00000000000000000000
     14.10999999999999943157	     11.59232914364613087344	     -3.13418047029924418112	   -179.40518028922002713443	      0.32544826483688449326	      0.80425221350574616075	     -0.94631379101694057532	     49.16048075283352858378	    -40.86856961787341191439	    -21.58217202872825879467	     38.65902152460292029446	      0.67472721120367895598	    -13.07772916180850053536	      0.00000000000000000000	      0.00000000000000000000	     47.09154989937100310726	    -32.36890010173225107337	    -18.37052520095445373727	     41.92509240129021463872	      0.73173090160537002102	     -4.61337288068521544915	      0.00000000000000000000	      0.00000000000000000000	    -59.74127587857316967757	      0.68126946999073434430	     -2.69275210284277344286	     54.10097553415666027377	    -11.97646023225987832461	     43.60513621222188618276	      7.56466536018064594771	     31.73540426961994853627	      0.00000000000000000000	      0.00000000000000000000	     62.47109541441278679486	    -13.43999826938220110151	     48.00418584407228195232	     16.12652504716337631407	     82.01042762190645873943	      0.00000000000000000000	      0.00000000000000000000
     14.11500000000000021316	     11.62403039578001084919	     -3.09975213639680857725	   -179.36137964130068667146	      0.32531203899780414268	      0.80518904041273853256	     -0.94640330560099517054	     48.99411435327886721325	    -40.79200365530734018193	    -21.70852689928765144600	     38.47770029691931625848	      0.67156255877684178923	    -13.15046392295082533508	      0.00000000000000000000	      0.00000000000000000000	     46.96728988501959634050	    -32.28851715621528484235	    -18.38635189420377358260	     41.62013631701293547849	      0.72640841386074217478	     -4.75693675196930598759	      0.00000000000000000000	      0.00000000000000000000	    -59.52047778842641889696	      0.68672181037975676965	     -2.71916575325099962868	     53.87574616024669893477	    -11.91875632117079675254	     43.58630290924929795437	      7.56231992573930966728	     31.73785424287935796883	      0.00000000000000000000	      0.00000000000000000000	     62.28453508621335998896	    -13.48326658458631222004	     48.03916773124706196541	     16.11211433196895015385	     82.01740041571676442800	      0.00000000000000000000	      0.00000000000000000000
     14.11999999999999921840	     11.61697975556714013123	     -3.10796583100526691013	   -179.27215211557572160928	      0.32520918890098488019	      0.80592863477814691286	     -0.94640640739227110956	     48.82516793189132187081	    -40.81774536490808458211	    -21.83701194474525664191	     38.36276189861530383496	      0.66955650528946819566	    -13.17608991333088930276	      0.00000000000000000000	      0.00000000000000000000	     46.91396816030175642709	    -32.16301643964494871852	    -18.30033469098508902562	     41.48666618090686597498	      0.72407892053260625165	     -4.86640978015613878682	      0.00000000000000000000	      0.00000000000000000000	    -59.30000100011133667977	      0.70913168405078574885	     -2.77732068630962958267	     53.70951065295753323880	    -11.92895266686998567707	     43.56420384831503156420	      7.53742054466399125090	     31.73730670196996328514	      0.00000000000000000000	      0.00000000000000000000	     62.08973407984706938123	    -13.51149145100730564195	     48.06365707832008382638	     16.07083157426204778062	     82.03373104879639754472	      0.00000000000000000000	      0.00000000000000000000
     14.12500000000000000000	     11.64133834497822128640	     -3.08536751632354810937	   -179.33844994946434781014	      0.32513119445964439036	      0.80718092524389506437	     -0.94670057526673156989	     48.56103366974173241033	    -40.51247130539567820051	    -21.73083768959655515118	     37.82997597420956736869	      0.66025763670030646058	    -13.33017279722734826919	      0.00000000000000000000	      0.00000000000000000000	     46.59738686740957547272	    -32.13089912896668209896	    -18.53385874286653134391	     40.96431958905841241858	      0.71496225266827984068	     -5.12909291857669469294	      0.00000000000000000000	      0.00000000000000000000	    -59.11928941729541264749	      0.62194454513868746570	     -2.67585272563676257462	     53.48401986988149303670	    -11.90125931465653863484	     43.55353888726910582818	      7.52605812213221891938	     31.73773933755333587214	      0.00000000000000000000	      0.00000000000000000000	     61.96399425907120672719	    -13.51368026492315799203	     48.08976793176049113754	     16.14940778181426139781	     82.05397217492827621754	      0.00000000000000000000	      0.00000000000000000000
     14.13000000000000078160	     11.59568831183777959382	     -3.10197634488407691933	   -179.34008882112402716302	      0.32495194457547982303	      0.80831879584387078541	     -0.94687930108218298919	     48.30391946210642117876	    -40.40336436241751982834	    -21.73858388051961654241	     37.52723644005919823030	      0.65497383505342865462	    -13.44005514774504916886	      0.00000000000000000000	      0.00000000000000000000	     46.30719005939748456058	    -32.04335916238352410801	    -18.67516154841590747537	     40.60751628048123507142	      0.70873486015159870011	     -5.30253427127596399515	      0.00000000000000000000	      0.00000000000000000000	    -58.96986750907414887024	      0.55570006897689305791	     -2.69470915175028657984	     53.26835283541246468531	    -11.89511852115781209704	     43.54750468153525844173	      7.53131188445476684734	     31.74098021099593935901	      0.00000000000000000000	      0.00000000000000000000	     61.79568259904801408311	    -13.54082862542808385342	     48.13257158799964230411	     16.16834786092712761274	     82.05574336163137161293	      0.00000000000000000000	      0.00000000000000000000
     14.13499999999999978684	     11.46384741771151105638	     -3.20446428599882526811	   -179.35000895588885327925	      0.32470956879997070477	      0.80982196042176035622	     -0.94707453237358574238	     47.96316543505032115036	    -40.33189387264786063270	    -21.66444594917778943000	     37.14598307577678326652	      0.64831970856239518053	    -13.58448597193517315418	      0.00000000000000000000	      0.00000000000000000000	     45.79968109806496556757	    -31.87120256652871574943	    -18.97619409440079962792	     40.14689499349993440092	      0.70069550208900133192	     -5.49076163575508235937	      0.00000000000000000000	      0.00000000000000000000	    -58.95208180057551317077	      0.43171554563784309000	     -2.76159854531927217991	     53.10198045321168791588	    -11.88915449532498946894	     43.54145062019739498282	      7.57750366390550578188	     31.73856311077971881218	      0.00000000000000000000	      0.00000000000000000000	     61.69389946463959972789	    -13.57847107774693107274	     48.23062261278182916158	     16.21950657593072619989	     82.01765672622089198285	      0.00000000000000000000	      0.00000000000000000000
     14.14000000000000056843	     11.47046996486096226420	     -3.19395406242796964236	   -179.33920988397244400403	      0.32455433391399607368	      0.81095736925738337586	     -0.94727206590270773834	     47.71795058637978570459	    -40.19309464097708683994	    -21.72654093843055633783	     36.81701907800190554099	      0.64257820368070028838	    -13.68327145191110005840	      0.00000000000000000000	      0.00000000000000000000	     45.57662434633785863980	    -31.78373940275992381999	    -19.06468222897123965254	     39.76025666838459216024	      0.69394739030134233726	     -5.67651667491614908556	      0.00000000000000000000	      0.00000000000000000000	    -58.75733998967351112697	      0.39023941193015126983	     -2.75728906257247263767	     52.89945068237460645832	    -11.86097778555375015230	     43.52544628268323378961	      7.56967471438230710135	     31.72716553508196923872	      0.00000000000000000000	      0.00000000000000000000	     61.53465570132370032752	    -13.61624184216162802841	     48.32627680111513512884	     16.22651140861802332438	     81.99678974233360406743	      0.00000000000000000000	      0.00000000000000000000
     14.14499999999999957367	     11.51007083780725537281	     -3.15551868118081113579	   -179.29593395653563447922	      0.32443154984568933763	      0.81190971470439676771	     -0.94740363607277167102	     47.53530575275303249327	    -40.09165261936914248508	    -21.84740754728593614686	     36.58773132839678510209	      0.63857637751560258899	    -13.77082831060000955858	      0.00000000000000000000	      0.00000000000000000000	     45.46806570918869994102	    -31.71450912328596061229	    -19.08771912275155457905	     39.44901834506165272387	      0.68851525680097036552	     -5.84443958021473175535	      0.00000000000000000000	      0.00000000000000000000	    -58.50700892458992541378	      0.39486942242363282096	     -2.76251475277196867353	     52.67608308894786262044	    -11.80164792728464462357	     43.50539908780390874199	      7.55146813667654548397	     31.72396622712540548150	      0.00000000000000000000	      0.00000000000000000000	     61.34798576367320777081	    -13.64254045460238806697	     48.38074281434433743243	     16.20734989606253861893	     82.00185577139144754710	      0.00000000000000000000	      0.00000000000000000000
